<?xml version="1.0" encoding="utf-8"?>
<svg version="1.1"
	 xmlns="http://www.w3.org/2000/svg" xmlns:xlink="http://www.w3.org/1999/xlink"
	 x="0px" y="0px" width="258px" height="257px" viewBox="-0.999 -1 258 257" enable-background="new -0.999 -1 258 257"
	 xml:space="preserve">
<rect x="0.001" y="0" fill="#59BB0C" width="256" height="256"/>
<g>
	<defs>
		<rect id="SVGID_1_" x="0.001" y="0" width="256" height="256"/>
	</defs>
	<clipPath id="SVGID_2_">
		<use xlink:href="#SVGID_1_"  overflow="visible"/>
	</clipPath>
	<path clip-path="url(#SVGID_2_)" fill="#FFFFFF" d="M211,180.998c18.879-25.67,27.764-55.923,27.764-85.582
		c0-35.642-13.681-69.731-37.373-95.416C190.126,0.001,0.002,0.001,0.002,0.001s0,166.166-0.002,200.34
		c24.807,23.197,58.647,37.895,98.167,37.895c29.344,0,57.512-9.457,81.076-26.112L224.796,256l31.504-31.832L211,180.998z
		 M97.324,193.237c-53.642,0-97.186-43.534-97.186-97.185c0-48.62,35.708-89.051,82.286-96.051h29.805
		c46.591,7,82.279,47.431,82.279,96.051C194.508,149.703,150.987,193.237,97.324,193.237"/>
</g>
</svg>
