<?xml version="1.0" encoding="utf-8"?>
<!-- Generator: Adobe Illustrator 19.1.0, SVG Export Plug-In . SVG Version: 6.00 Build 0)  -->
<svg version="1.1" id="レイヤー_1" xmlns="http://www.w3.org/2000/svg" xmlns:xlink="http://www.w3.org/1999/xlink" x="0px"
	 y="0px" viewBox="0 0 566.9291382 566.9291382" style="enable-background:new 0 0 566.9291382 566.9291382;" xml:space="preserve">
<style type="text/css">
	.st0{fill:#00A4BB;}
	.st1{fill:#FFFFFF;}
</style>
<g>
	<path class="st0" d="M312.25,301.4746094h-10.6221313l-4.6900024-11.269104l-4.6889038,11.269104h-10.6229858
		l-19.2387695-46.2387695h10.7406616l13.8085938,33.190918l4.6307983-11.1307373l-9.1775513-22.0601807h10.7401733
		l3.8076172,9.1520996l3.8075562-9.1520996h10.7403564l-9.1774292,22.0608521l4.6304932,11.1300659l13.8085938-33.190918v-5.1279297
		c-0.0077515-2.1660767-1.7597656-3.9179688-3.9238892-3.9257812h-66.715271
		c-2.1694336,0.0078125-3.9258423,1.7675781-3.9258423,3.9393921v9.2774048v5.656189v51.7525024v0.015625h0.0015259
		c0.0083008,2.1660156,1.7675781,3.9237671,3.9389648,3.9237671h66.6870117c2.1699219,0,3.9297485-1.7577515,3.9375-3.9237671
		v-35.7696533L312.25,301.4746094z"/>
	<polygon class="st1" points="302.3079834,277.2966919 311.4854126,255.2358398 300.7450562,255.2358398 296.9375,264.3879395 
		293.1298828,255.2358398 282.3897095,255.2358398 291.5672607,277.2960205 286.9364624,288.4267578 273.1278687,255.2358398 
		262.387207,255.2358398 281.5664062,301.3359375 281.6259766,301.4746094 292.2489624,301.4746094 296.9378662,290.2055054 
		301.6278687,301.4746094 312.25,301.4746094 320.7470703,281.0535889 320.7470703,256.4145508 320.7470703,255.2358398 
		306.9384766,288.4267578 	"/>
</g>
</svg>
